<?xml version="1.0" encoding="UTF-8" standalone="no"?><!DOCTYPE svg PUBLIC "-//W3C//DTD SVG 1.1//EN" "http://www.w3.org/Graphics/SVG/1.1/DTD/svg11.dtd"><svg width="100%" height="100%" viewBox="0 0 29 29" version="1.1" xmlns="http://www.w3.org/2000/svg" xmlns:xlink="http://www.w3.org/1999/xlink" xml:space="preserve" style="fill-rule:evenodd;clip-rule:evenodd;stroke-linejoin:round;stroke-miterlimit:1.41421;"><path d="M28.346,1.417c0,-0.782 -0.635,-1.417 -1.417,-1.417l-25.512,0c-0.782,0 -1.417,0.635 -1.417,1.417l0,25.512c0,0.782 0.635,1.417 1.417,1.417l25.512,0c0.782,0 1.417,-0.635 1.417,-1.417l0,-25.512Z" style="fill:#0384a8;"/><rect x="4.252" y="4.252" width="19.843" height="19.843" style="fill:#0384a8;"/><path d="M24.094,24.094l-19.842,0l0,-19.842l19.842,0l0,19.842Zm-16.642,-3.2l13.442,0l0,-13.442l-13.442,0l0,13.442Z" style="fill:#fff;"/></svg>