<?xml version="1.0" encoding="UTF-8" standalone="no"?><!DOCTYPE svg PUBLIC "-//W3C//DTD SVG 1.1//EN" "http://www.w3.org/Graphics/SVG/1.1/DTD/svg11.dtd"><svg width="100%" height="100%" viewBox="0 0 29 29" version="1.1" xmlns="http://www.w3.org/2000/svg" xmlns:xlink="http://www.w3.org/1999/xlink" xml:space="preserve" style="fill-rule:evenodd;clip-rule:evenodd;stroke-linecap:round;stroke-linejoin:round;stroke-miterlimit:1.5;"><path d="M28.346,1.417c0,-0.782 -0.635,-1.417 -1.417,-1.417l-25.512,0c-0.782,0 -1.417,0.635 -1.417,1.417l0,25.512c0,0.782 0.635,1.417 1.417,1.417l25.512,0c0.782,0 1.417,-0.635 1.417,-1.417l0,-25.512Z"/><path d="M14.173,3.027l3.26,6.519l-6.52,0l3.26,-6.519Z" style="fill:#fff;"/><path d="M14.173,8.97l0,19.295" style="fill:none;stroke:#fff;stroke-width:2.28px;"/><g><path d="M5.966,5.239l3.26,6.519l-6.52,0l3.26,-6.519Z" style="fill:#fff;"/><path d="M5.85,10.477c-0.291,10.671 0.659,10.464 8.207,10.535" style="fill:none;stroke:#fff;stroke-width:2.3px;stroke-linecap:butt;stroke-linejoin:miter;"/></g><g><path d="M22.258,5.239l-3.26,6.519l6.52,0l-3.26,-6.519Z" style="fill:#fff;"/><path d="M22.374,10.477c0.291,10.671 -0.659,10.464 -8.207,10.535" style="fill:none;stroke:#fff;stroke-width:2.3px;stroke-linecap:butt;stroke-linejoin:miter;"/></g></svg>